<?xml version="1.0" standalone="no"?>
<!DOCTYPE svg PUBLIC "-//W3C//DTD SVG 20010904//EN"
 "http://www.w3.org/TR/2001/REC-SVG-20010904/DTD/svg10.dtd">
<svg version="1.0" xmlns="http://www.w3.org/2000/svg"
 width="1280.000000pt" height="1052.000000pt" viewBox="0 0 1280.000000 1052.000000"
 preserveAspectRatio="xMidYMid meet">
<metadata>
Created by potrace 1.15, written by Peter Selinger 2001-2017
</metadata>
<g transform="translate(0.000000,1052.000000) scale(0.100000,-0.100000)"
fill="#000000" stroke="none">
<path d="M9050 10514 c-36 -2 -216 -8 -400 -14 -1096 -36 -1860 -113 -2444
-250 -46 -11 -344 -67 -662 -125 -317 -58 -651 -120 -743 -138 l-166 -32 -6
-500 c-4 -275 -9 -1330 -12 -2345 l-5 -1845 112 -1 c312 -1 566 -165 858 -554
142 -191 269 -342 513 -615 451 -504 614 -722 779 -1035 33 -63 97 -171 141
-240 220 -337 295 -494 440 -910 46 -129 106 -298 135 -375 60 -160 112 -361
135 -517 8 -59 24 -227 35 -375 25 -337 39 -494 45 -504 3 -4 31 -22 62 -40
32 -18 74 -48 95 -67 l39 -35 112 6 c313 16 580 139 818 376 162 163 277 350
343 560 15 46 40 165 56 263 97 590 46 853 -277 1423 -87 154 -150 288 -189
405 -29 87 -22 178 26 380 23 96 44 178 46 181 2 4 34 13 71 20 48 10 141 14
318 13 1768 -11 2157 4 2595 98 73 15 113 31 174 66 298 177 533 492 666 892
35 103 40 132 35 170 -15 101 -57 184 -236 465 -90 143 -123 229 -123 330 -1
71 3 88 31 146 18 36 63 99 101 141 143 157 183 240 190 398 9 213 -66 374
-274 590 -112 116 -137 156 -154 249 -20 112 5 218 110 461 87 199 113 301
108 408 -7 150 -49 216 -307 485 -248 259 -316 361 -348 526 -14 72 -15 95 -4
174 25 174 12 284 -50 416 -82 178 -242 341 -558 571 -167 121 -340 190 -611
244 -252 51 -370 58 -985 61 -313 1 -599 1 -635 -1z"/>
<path d="M331 10264 c-30 -8 -76 -26 -102 -41 -59 -31 -148 -123 -178 -181
-54 -106 -51 25 -51 -2392 0 -1470 4 -2250 11 -2279 38 -167 186 -308 358
-341 74 -14 3338 -14 3412 0 165 31 301 152 350 311 18 59 19 130 19 2307 0
1840 -3 2256 -14 2297 -40 152 -152 268 -303 315 -64 20 -90 20 -1757 19
-1445 0 -1699 -2 -1745 -15z"/>
</g>
</svg>
