<svg width="2829" height="2940" viewBox="0 0 2829 2940" fill="none" xmlns="http://www.w3.org/2000/svg">
<path d="M998.198 1918.19C997.107 1917.5 995.755 1917.54 994.632 1918.26C924.975 1962.69 860.651 2028.1 808.618 2107.41C783.857 2145.16 763.897 2183.07 748.867 2220.85C737.642 2249.05 724.263 2328.97 722.61 2398.47H729.803C731.842 2336.75 744.669 2251.11 755.404 2224C775.221 2173.86 803.794 2123.77 840.848 2074.35C887.595 2011.96 940.565 1961.65 998.296 1924.81C999.415 1924.09 1000.06 1922.93 1000.04 1921.6C1000.04 1920.2 999.307 1918.87 998.198 1918.19" fill="#68B451"/>
<path d="M988.897 1926.45C1013.12 1834.4 1102.14 1819 1172.94 1777.29C1134.42 1838.48 1064.59 1915.57 988.897 1926.45ZM882.813 2017.6C880.82 1966.66 879.145 1924.19 892.243 1872.18C904.972 1821.44 925.529 1771.66 954.939 1728.74C953.292 1749.22 963.711 1774.71 964.538 1795.95C966.428 1823.09 960.496 1849.28 953.328 1875.1C942.217 1915.13 926.856 1951.08 902.798 1984.42L882.813 2017.6" fill="#68B451"/>
<path d="M949.464 1956.11C1009.19 2007.61 1116.73 1974.11 1180.36 1958.23C1128.54 1941.27 1056.24 1944.79 1002.76 1948.33L949.464 1956.11Z" fill="#5CA332"/>
<path d="M862.513 2042.29C917.587 2110.55 1023.21 2132.44 1103.23 2096.28C1103.23 2096.28 1055.33 2074.93 1035.28 2064.71C1006.54 2051.9 975.12 2043.87 944.4 2043.05L862.513 2042.29" fill="#68B451"/>
<path d="M844.664 2063.25C810.508 2016.64 797.962 1930.62 816.211 1874.55C828.782 1892.3 832.799 1921.49 838.968 1942.91C849.707 1976.91 853.365 2007.37 848.649 2043.73L844.664 2063.25" fill="#3D8332"/>
<path d="M821.673 2094.84C860.986 2136.85 909.436 2138.26 963.688 2123.96C963.688 2123.96 925.854 2103.44 908.158 2097.76C891.752 2091.9 871.846 2089.24 853.891 2091.72L821.674 2094.84H821.673ZM790.846 2141.89C789.2 2174.35 806.896 2195.4 832.957 2212.97C832.957 2212.97 826.73 2189.23 822.287 2179.59C818.393 2170.43 811.938 2161 804.201 2154.35L790.846 2141.89" fill="#5CA332"/>
<path d="M787.559 2149.14C758.715 2161.76 733.662 2151.6 708.901 2132.1C708.901 2132.1 732.505 2130.13 742.749 2131.21C752.344 2131.9 763.078 2135.02 771.733 2140.31L787.559 2149.14Z" fill="#3D8332"/>
<path d="M899.721 2000.49C936.547 2042.3 1068.21 2038.23 1116.74 2023.42C1116.74 2023.42 1054.39 2005.63 993.434 1997.39C932.455 1989.13 899.721 2000.49 899.721 2000.49V2000.49ZM961.6 1945.9C953.977 1898.36 988.871 1807.07 1018.59 1754.59C1025.29 1795.96 1008.84 1893.74 965.259 1943.14L961.6 1945.9Z" fill="#5CA332"/>
<path d="M800.466 2127.39C781.818 2112.1 768.877 2081.14 763.157 2052.68C754.655 2012.35 752.559 1970.78 756.472 1929.46C788.144 1973.57 809.58 2070.21 802.051 2124.61L800.466 2127.39" fill="#68B451"/>
<path d="M797.607 2131.58C845.42 2180.56 909.049 2201.22 976.133 2152.08C949.743 2148.87 908.886 2138.82 872.968 2136.49C837.034 2134.16 797.607 2131.58 797.607 2131.58Z" fill="#3D8332"/>
<path d="M791.895 2140.05C753.679 2136.63 725.319 2092.01 714.231 2058.03C739.424 2069.89 771.441 2096.66 782.396 2122.44L791.895 2140.05Z" fill="#5CA332"/>
<path d="M582.774 2180.2C580.251 2225.38 582.188 2357.18 572.265 2398.47H583.267C592.946 2357.36 590.853 2225.55 593.281 2180.2C596.275 2124.31 593.743 2065.38 585.678 2003.8C567.486 1864.96 524.514 1735.94 461.434 1630.7C460.407 1628.98 458.666 1628.04 456.818 1628.18C454.928 1628.33 453.14 1629.59 452.262 1631.38C451.42 1633.14 451.512 1635.09 452.532 1636.8C504.809 1724.02 542.435 1825.61 564.341 1938.75C580.836 2023.94 586.97 2104.66 582.774 2180.2Z" fill="#68B451"/>
<path d="M463.765 1645.28C489.906 1508.66 383.282 1428.24 316.993 1325.79C328.916 1431.79 371.729 1579.77 463.765 1645.28V1645.28ZM545.117 1836.23C579.715 1771.04 608.535 1716.71 624.066 1639.9C639.274 1565.03 643.668 1486.07 632.194 1410.06C621.483 1437.94 591.879 1464.2 577.47 1491.35C557.967 1525.52 549.28 1563.74 542.451 1602.34C531.837 1662.15 529.343 1719.51 539.845 1779.37L545.117 1836.23" fill="#68B451"/>
<path d="M496.658 1710.77C386.358 1737.52 266.924 1620.91 193.783 1557.04C272.1 1570.05 364.328 1623.61 431.944 1664.45L496.658 1710.77" fill="#5CA332"/>
<path d="M556.156 1882.22C441.395 1934.05 289.71 1891.05 207.888 1789.62C207.888 1789.62 283.855 1794.18 316.445 1794.44C362.019 1797.18 408.084 1807.99 448.732 1827.73L556.156 1882.22" fill="#68B451"/>
<path d="M566.308 1921.71C640.161 1884 710.537 1780.11 721.866 1694.52C694.299 1709.19 670.773 1744.58 649.268 1768.39C613.897 1805.51 590.007 1842.82 573.344 1893.49L566.308 1921.71" fill="#3D8332"/>
<path d="M576.505 1978.51C498.814 2006.75 434.641 1975.77 372.749 1920.32C372.749 1920.32 435.056 1919.17 461.726 1923.75C486.835 1927.21 514.507 1937.23 536.381 1952.63L576.506 1978.51H576.505ZM587.261 2060.87C569.033 2104.39 532.701 2119.88 487.639 2125.17C487.639 2125.17 510.689 2098.37 522.532 2088.8C533.35 2079.48 547.705 2071.55 561.995 2068.09L587.262 2060.87" fill="#5CA332"/>
<path d="M587.003 2072.58C616.74 2108.61 655.835 2112.31 700.411 2103.62C700.411 2103.62 670.816 2085.03 656.776 2079.52C643.811 2073.91 627.845 2070.69 613.212 2071.76L587.003 2072.58" fill="#3D8332"/>
<path d="M533.792 1802.41C459.43 1832.07 290.05 1737.52 235.969 1685.28C235.969 1685.28 328.557 1704.33 413.362 1734.86C498.165 1765.39 533.792 1802.41 533.792 1802.41ZM487.204 1689.17C527.005 1632.27 538.697 1489.41 532.821 1400.74C498.135 1450.22 458.251 1589.06 484.175 1683.12L487.205 1689.17" fill="#5CA332"/>
<path d="M583.792 2035.39C617.751 2028.1 654.051 1996.43 679.408 1963.11C715.787 1916.2 744.615 1863.35 765.446 1806.72C696.387 1842.89 607.768 1954.57 583.468 2030.75L583.792 2035.39" fill="#68B451"/>
<path d="M584.878 2042.83C491.711 2074.4 395.642 2058.25 338.873 1948.6C375.355 1962.3 435.028 1976.87 483.388 1998.16C531.772 2019.47 584.878 2042.83 584.878 2042.83Z" fill="#3D8332"/>
<path d="M587.048 2057.75C639.082 2079.17 704.126 2040.13 739.929 2003.27C699.59 2001.68 640.985 2014.95 610.494 2041.19L587.048 2057.75" fill="#5CA332"/>
<path d="M786.261 2627.28L827.22 2315.62H484.628L524.901 2627.28H786.261Z" fill="#3B87B4"/>
<path d="M838.788 2315.62V2255.22C838.788 2242.95 829.217 2233.01 817.427 2233.01H494.427C482.635 2233.01 473.064 2242.95 473.064 2255.22V2315.62H838.788Z" fill="#4CAFE6"/>
<path d="M1641.78 2357.87H873.417V1764.78H1641.78V2357.87" fill="#F68C45"/>
<path d="M2026.09 1568.77H1641.78C1589.71 1568.77 1547.48 1612.65 1547.48 1666.78C1547.48 1720.9 1589.71 1764.78 1641.78 1764.78V2357.87H2120.4V1666.78C2120.4 1612.65 2078.18 1568.77 2026.09 1568.77" fill="#EF6219"/>
<path d="M1547.48 1666.78C1547.48 1612.65 1589.71 1568.77 1641.78 1568.77H873.417C821.332 1568.77 779.122 1612.65 779.122 1666.78C779.122 1720.9 821.332 1764.78 873.417 1764.78H1641.78C1589.71 1764.78 1547.49 1720.9 1547.49 1666.78H1547.48ZM1602.04 2053.21H905.598V1817.41H1602.04V2053.21ZM1602.04 2317.34H905.598V2081.54H1602.04V2317.34Z" fill="#F9A646"/>
<path d="M1382.72 1885.83C1382.72 1897.51 1373.6 1906.97 1362.36 1906.97H1145.28C1134.03 1906.97 1124.92 1897.51 1124.92 1885.83C1124.92 1874.15 1134.03 1864.67 1145.28 1864.67H1362.36C1373.6 1864.67 1382.72 1874.15 1382.72 1885.83ZM1382.72 2153.74C1382.72 2165.42 1373.6 2174.88 1362.36 2174.88H1145.28C1134.03 2174.88 1124.92 2165.42 1124.92 2153.74C1124.92 2142.06 1134.03 2132.58 1145.28 2132.58H1362.36C1373.6 2132.58 1382.72 2142.06 1382.72 2153.74ZM925.061 2627.28H873.416V2357.87H925.06V2627.28" fill="#F68C45"/>
<path d="M976.71 2627.28H925.061V2357.87H976.711V2627.28H976.71ZM1693.44 2627.28H1641.78V2357.87H1693.44V2627.28" fill="#EF6219"/>
<path d="M1641.78 2627.28H1590.15V2357.87H1641.78V2627.28V2627.28ZM1352.03 2627.28H1300.38V2357.87H1352.03V2627.28" fill="#F68C45"/>
<path d="M1403.67 2627.28H1352.03V2357.87H1403.67V2627.28V2627.28ZM2120.4 2627.28H2068.76V2357.87H2120.4V2627.28" fill="#EF6219"/>
<path d="M2068.76 2627.28H2017.11V2357.87H2068.76V2627.28" fill="#F68C45"/>
<path d="M1840.39 618.053C1836.82 620.962 1831.65 620.301 1828.83 616.591L1679.16 418.152L1269.25 871.848L1461 1392.69C1462.63 1397.09 1460.5 1402.04 1456.26 1403.73C1455.3 1404.1 1454.31 1404.28 1453.32 1404.28C1450.02 1404.28 1446.9 1402.21 1445.65 1398.8L1252.06 872.964C1251.51 871.466 1251.37 869.837 1251.67 868.263C1251.97 866.689 1252.68 865.234 1253.74 864.065L1673.73 399.207C1674.54 398.309 1675.52 397.602 1676.62 397.136C1677.72 396.669 1678.9 396.453 1680.08 396.503C1681.27 396.557 1682.43 396.877 1683.48 397.442C1684.54 398.006 1685.46 398.802 1686.19 399.773L1841.78 606.043C1844.6 609.752 1843.96 615.13 1840.39 618.055V618.053ZM1856 594.454L1700.43 388.171C1695.68 381.898 1688.57 378.079 1680.88 377.733C1677.09 377.557 1673.31 378.235 1669.8 379.719C1666.29 381.203 1663.13 383.459 1660.53 386.332L1240.55 851.19C1237.17 854.934 1234.87 859.592 1233.92 864.63C1232.97 869.668 1233.4 874.882 1235.16 879.678L1428.75 1405.53C1432.75 1416.41 1442.75 1423.1 1453.34 1423.1C1456.46 1423.1 1459.63 1422.5 1462.72 1421.28C1476.3 1415.88 1483.08 1400.07 1477.89 1385.98L1290.2 876.142L1677.93 446.971L1814.61 628.194C1823.57 640.08 1840.1 642.139 1851.54 632.832C1862.98 623.525 1864.99 606.341 1856 594.455" fill="#9A1F19"/>
<path d="M1318.4 869.918C1318.4 903.586 1292.13 930.894 1259.72 930.894C1227.33 930.894 1201.05 903.586 1201.05 869.918C1201.05 836.224 1227.33 808.943 1259.72 808.943C1292.13 808.943 1318.4 836.224 1318.4 869.918Z" fill="#D72D25"/>
<path d="M1298.33 869.918C1298.33 892.072 1281.04 910.028 1259.72 910.028C1238.41 910.028 1221.13 892.072 1221.13 869.918C1221.13 847.751 1238.41 829.809 1259.72 829.809C1281.04 829.809 1298.33 847.751 1298.33 869.918Z" fill="#BE2721"/>
<path d="M1738.41 405.041C1738.41 438.708 1712.11 466.005 1679.71 466.005C1647.32 466.005 1621.05 438.708 1621.05 405.041C1621.05 371.357 1647.32 344.059 1679.71 344.059C1712.11 344.059 1738.41 371.357 1738.41 405.041Z" fill="#D72D25"/>
<path d="M1718.32 405.037C1718.32 427.202 1701.05 445.165 1679.71 445.165C1658.4 445.165 1641.13 427.203 1641.13 405.037C1641.13 382.873 1658.4 364.927 1679.71 364.927C1701.05 364.927 1718.32 382.873 1718.32 405.037Z" fill="#BE2721"/>
<path d="M1687.33 1568.77V1531.95C1687.33 1509.29 1669.66 1490.95 1647.87 1490.95H1249.91C1228.12 1490.95 1210.45 1509.29 1210.45 1531.95V1568.77H1687.33Z" fill="#D72D25"/>
<path d="M1601.92 1490.95V1436.55C1601.92 1390.93 1566.36 1353.95 1522.46 1353.95H1375.32C1331.43 1353.95 1295.86 1390.93 1295.86 1436.55V1490.95H1601.92V1490.95ZM1908.9 556.554C1938.16 596.403 1930.82 653.342 1892.49 683.781C1854.18 714.189 1799.37 706.554 1770.1 666.72C1740.82 626.901 1748.17 569.947 1786.49 539.523C1824.8 509.099 1879.62 516.72 1908.9 556.554" fill="#BE2721"/>
<path d="M1926.58 603.873C1926.58 603.873 1903.95 602.955 1859.2 638.47C1814.46 673.999 1809.37 696.925 1809.37 696.925L1869.17 979.966C1869.17 979.966 1919.2 984.395 2041.88 887.043C2164.54 789.676 2173.59 738.332 2173.59 738.332L1926.58 603.873" fill="#D72D25"/>
<path d="M2173.6 738.324C2173.6 738.324 2164.86 806.492 2051.41 895.891C1937.97 985.317 1869.18 979.955 1869.18 979.955C1869.18 979.955 1922.57 894.048 2004.83 824.701C2087.11 755.369 2173.6 738.324 2173.6 738.324Z" fill="#570F0C"/>
<path d="M1945.48 881.987C1974.23 896.561 2009.68 894.15 2036.85 872.578C2064.93 850.3 2076.36 813.821 2068.98 780.237C2048.4 791.875 2026.48 806.464 2004.83 824.696C1982.82 843.262 1962.89 863.005 1945.48 881.987" fill="#EBDABB"/>
<path d="M2035.57 2040.92C2035.57 2040.92 2018.76 2049.51 1996.99 2049.51C1975.21 2049.51 1958.42 2040.92 1958.42 2040.92V1763.35C1958.42 1763.35 1967.68 1758.61 1996.99 1758.61C2026.31 1758.61 2035.57 1763.35 2035.57 1763.35V2040.92" fill="#5DC347"/>
<path d="M2015.83 1819.93C2015.83 1830.72 2007.39 1839.49 1996.99 1839.49C1986.58 1839.49 1978.15 1830.72 1978.15 1819.93C1978.15 1809.13 1986.58 1800.36 1996.99 1800.36C2007.39 1800.36 2015.83 1809.13 2015.83 1819.93ZM1996.99 1771.61C1967.68 1771.61 1958.42 1776.33 1958.42 1776.33V1795.27C1958.42 1795.27 1967.68 1790.53 1996.99 1790.53C2026.31 1790.53 2035.57 1795.27 2035.57 1795.27V1776.33C2035.57 1776.33 2026.31 1771.61 1996.99 1771.61ZM1996.99 2019.98C1967.68 2019.98 1958.42 2015.24 1958.42 2015.24V1996.29C1958.42 1996.29 1967.68 2001.03 1996.99 2001.03C2026.31 2001.03 2035.57 1996.29 2035.57 1996.29V2015.24C2035.57 2015.24 2026.31 2019.98 1996.99 2019.98ZM1996.99 2037.3C1967.68 2037.3 1958.42 2032.56 1958.42 2032.56V2023.09C1958.42 2023.09 1967.68 2027.82 1996.99 2027.82C2026.31 2027.82 2035.57 2023.09 2035.57 2023.09V2032.56C2035.57 2032.56 2026.31 2037.3 1996.99 2037.3Z" fill="#7BCC41"/>
<path d="M2357.98 2039.38C2357.98 2039.38 2338.19 2049.51 2312.53 2049.51C2286.85 2049.51 2267.08 2039.38 2267.08 2039.38V1712.28C2267.08 1712.28 2278 1706.69 2312.53 1706.69C2347.05 1706.69 2357.98 1712.28 2357.98 1712.28V2039.38" fill="#8A8E91"/>
<path d="M2357.98 1751.74C2357.98 1751.74 2354.9 1750.16 2346.77 1748.69C2341.85 1740.15 2328.37 1734.01 2312.53 1734.01C2296.68 1734.01 2283.22 1740.15 2278.28 1748.69C2270.17 1750.16 2267.08 1751.74 2267.08 1751.74V1774.09C2267.08 1774.09 2271.78 1771.66 2284.84 1770.02C2291.5 1774.74 2301.44 1777.76 2312.53 1777.76C2323.63 1777.76 2333.55 1774.74 2340.21 1770.02C2353.27 1771.66 2357.98 1774.09 2357.98 1774.09V1751.74V1751.74ZM2312.53 2014.71C2278 2014.71 2267.08 2009.12 2267.08 2009.12V1986.79C2267.08 1986.79 2278 1992.37 2312.53 1992.37C2347.05 1992.37 2357.98 1986.79 2357.98 1986.79V2009.12C2357.98 2009.12 2347.05 2014.7 2312.53 2014.7V2014.71ZM2312.53 2035.13C2278 2035.13 2267.08 2029.54 2267.08 2029.54V2018.38C2267.08 2018.38 2278 2023.95 2312.53 2023.95C2347.05 2023.95 2357.98 2018.38 2357.98 2018.38V2029.54C2357.98 2029.54 2347.05 2035.13 2312.53 2035.13" fill="#AEB0AC"/>
<path d="M2112.75 2040.92C2112.75 2040.92 2095.97 2049.51 2074.17 2049.51C2052.36 2049.51 2035.57 2040.92 2035.57 2040.92V1633.71C2035.57 1633.71 2044.83 1628.97 2074.17 1628.97C2103.47 1628.97 2112.75 1633.71 2112.75 1633.71V2040.92" fill="#233262"/>
<path d="M2074.17 1641.95C2044.83 1641.95 2035.57 1646.7 2035.57 1646.7V1665.66C2035.57 1665.66 2044.83 1660.92 2074.17 1660.92C2103.47 1660.92 2112.75 1665.66 2112.75 1665.66V1646.7C2112.75 1646.7 2103.47 1641.95 2074.17 1641.95ZM2074.17 2019.95C2044.83 2019.95 2035.57 2015.22 2035.57 2015.22V1996.25C2035.57 1996.25 2044.83 2001 2074.17 2001C2103.47 2001 2112.75 1996.25 2112.75 1996.25V2015.22C2112.75 2015.22 2103.47 2019.95 2074.17 2019.95ZM2074.17 2037.3C2044.83 2037.3 2035.57 2032.55 2035.57 2032.55V2023.09C2035.57 2023.09 2044.83 2027.81 2074.17 2027.81C2103.47 2027.81 2112.75 2023.09 2112.75 2023.09V2032.55C2112.75 2032.55 2103.47 2037.3 2074.17 2037.3Z" fill="#354988"/>
<path d="M2266.95 2040.91C2266.95 2040.91 2250.17 2049.5 2228.39 2049.5C2206.6 2049.5 2189.81 2040.91 2189.81 2040.91V1763.34C2189.81 1763.34 2199.08 1758.61 2228.39 1758.61C2257.69 1758.61 2266.95 1763.34 2266.95 1763.34V2040.91" fill="#F57725"/>
<path d="M2228.39 1792.09C2199.09 1792.09 2189.81 1796.85 2189.81 1796.85V1815.79C2189.81 1815.79 2199.08 1811.05 2228.39 1811.05C2257.69 1811.05 2266.95 1815.79 2266.95 1815.79V1796.85C2266.95 1796.85 2257.69 1792.09 2228.39 1792.09H2228.39ZM2228.39 1864.32C2199.09 1864.32 2189.81 1869.04 2189.81 1869.04V1958.06C2189.81 1958.06 2199.08 1961.36 2228.39 1961.36C2257.69 1961.36 2266.95 1958.06 2266.95 1958.06V1869.04C2266.95 1869.04 2257.69 1864.32 2228.39 1864.32H2228.39ZM2228.39 1774.78C2199.09 1774.78 2189.81 1779.51 2189.81 1779.51V1788.99C2189.81 1788.99 2199.08 1784.25 2228.39 1784.25C2257.69 1784.25 2266.95 1788.99 2266.95 1788.99V1779.51C2266.95 1779.51 2257.69 1774.77 2228.39 1774.77" fill="#F9A96B"/>
<path d="M2189.88 2040.92C2189.88 2040.92 2173.08 2049.51 2151.28 2049.51C2129.5 2049.51 2112.68 2040.92 2112.68 2040.92V1670.4C2112.68 1670.4 2121.95 1665.66 2151.28 1665.66C2180.61 1665.66 2189.88 1670.4 2189.88 1670.4V2040.92Z" fill="#4CAFE6"/>
<path d="M2151.28 1678.65C2121.95 1678.65 2112.68 1683.39 2112.68 1683.39V1702.36C2112.68 1702.36 2121.95 1697.61 2151.28 1697.61C2180.61 1697.61 2189.88 1702.36 2189.88 1702.36V1683.39C2189.88 1683.39 2180.61 1678.65 2151.28 1678.65Z" fill="#62C5ED"/>
<path d="M2406.73 2141.81C2406.73 2141.81 2417.14 2163.81 2417.14 2192.35C2417.14 2220.89 2406.73 2242.88 2406.73 2242.88H1913.07C1913.07 2242.88 1907.31 2230.74 1907.31 2192.35C1907.31 2153.96 1913.07 2141.81 1913.07 2141.81H2406.73" fill="#FAB220"/>
<path d="M1923.08 2192.35C1923.08 2230.74 1928.83 2242.88 1928.83 2242.88H1951.8C1951.8 2242.88 1946.05 2230.74 1946.05 2192.35C1946.05 2153.96 1951.8 2141.81 1951.8 2141.81H1928.83C1928.83 2141.81 1923.08 2153.96 1923.08 2192.35ZM2381.3 2192.35C2381.3 2230.74 2375.56 2242.88 2375.56 2242.88H2352.56C2352.56 2242.88 2358.32 2230.74 2358.32 2192.35C2358.32 2153.96 2352.56 2141.81 2352.56 2141.81H2375.56C2375.56 2141.81 2381.3 2153.96 2381.3 2192.35ZM2402.34 2192.35C2402.34 2230.74 2396.59 2242.88 2396.59 2242.88H2385.08C2385.08 2242.88 2390.84 2230.74 2390.84 2192.35C2390.84 2153.96 2385.08 2141.81 2385.08 2141.81H2396.59C2396.59 2141.81 2402.34 2153.96 2402.34 2192.35Z" fill="#FBC444"/>
<path d="M2384.45 2040.85C2384.45 2040.85 2394.88 2062.82 2394.88 2091.36C2394.88 2119.92 2384.45 2141.9 2384.45 2141.9H1935.33C1935.33 2141.9 1929.57 2129.75 1929.57 2091.36C1929.57 2052.98 1935.33 2040.85 1935.33 2040.85H2384.45Z" fill="#3A8DB4"/>
<path d="M1945.32 2091.36C1945.32 2129.75 1951.06 2141.91 1951.06 2141.91H1974.06C1974.06 2141.91 1968.32 2129.75 1968.32 2091.36C1968.32 2052.99 1974.06 2040.85 1974.06 2040.85H1951.06C1951.06 2040.85 1945.32 2052.99 1945.32 2091.36Z" fill="#66CDE0"/>
<path d="M1921.87 2341.58H2345.68C2369.35 2341.58 2388.52 2321.66 2388.52 2297.05C2388.52 2272.46 2369.35 2252.53 2345.68 2252.53V2252.54H1921.87C1921.26 2252.54 1920.66 2252.42 1920.1 2252.17C1919.53 2251.93 1919.02 2251.58 1918.59 2251.13C1918.16 2250.68 1917.81 2250.15 1917.58 2249.56C1917.35 2248.98 1917.22 2248.35 1917.22 2247.72C1917.22 2247.08 1917.34 2246.45 1917.58 2245.87C1917.81 2245.28 1918.15 2244.75 1918.58 2244.3C1919.02 2243.85 1919.53 2243.49 1920.09 2243.25C1920.66 2243.01 1921.26 2242.88 1921.87 2242.88H2345.68C2374.49 2242.88 2397.82 2267.13 2397.82 2297.05C2397.82 2326.98 2374.49 2351.24 2345.68 2351.24H1921.87C1921.26 2351.24 1920.66 2351.12 1920.09 2350.87C1919.53 2350.63 1919.02 2350.27 1918.58 2349.83C1918.15 2349.38 1917.81 2348.84 1917.58 2348.26C1917.34 2347.67 1917.22 2347.04 1917.22 2346.4C1917.22 2345.77 1917.34 2345.14 1917.58 2344.56C1917.81 2343.97 1918.16 2343.44 1918.59 2342.99C1919.02 2342.54 1919.53 2342.19 1920.1 2341.95C1920.66 2341.71 1921.26 2341.58 1921.87 2341.58" fill="#F03D3D"/>
<path d="M1924.2 2252.52H2334.46C2358.15 2252.52 2377.33 2272.46 2377.33 2297.05C2377.33 2321.66 2358.15 2341.59 2334.46 2341.59H1924.2V2252.52Z" fill="#D5CECB"/>
<path d="M1924.2 2330.55H2340.62C2365.97 2330.55 2377.33 2310.07 2377.33 2297.05C2377.33 2272.46 2358.13 2252.52 2334.47 2252.52H2345.65C2369.31 2252.52 2388.49 2272.46 2388.49 2297.05C2388.49 2321.66 2369.31 2341.59 2345.65 2341.59H1924.2V2330.55Z" fill="#BAB5AC"/>
<path d="M2320.39 2269.89C2272.15 2270.74 2223.89 2270.53 2175.63 2270.89C2127.37 2270.53 2079.13 2270.75 2030.88 2269.89C2079.13 2269.03 2127.37 2269.26 2175.63 2268.9C2223.89 2269.26 2272.15 2269.05 2320.39 2269.89ZM2365.16 2297.05C2325.04 2297.74 2284.93 2297.58 2244.81 2297.87C2204.69 2297.58 2164.58 2297.76 2124.46 2297.05C2164.58 2296.34 2204.69 2296.54 2244.81 2296.25C2284.93 2296.54 2325.04 2296.36 2365.16 2297.05ZM2195.72 2320.99C2150.47 2321.68 2105.23 2321.5 2059.96 2321.79C2014.72 2321.5 1969.47 2321.68 1924.21 2320.99C1969.47 2320.28 2014.71 2320.46 2059.96 2320.17C2105.23 2320.46 2150.47 2320.3 2195.72 2320.99H2195.72ZM2209.48 2306.89C2161.93 2307.6 2114.39 2307.42 2066.82 2307.71C2019.29 2307.42 1971.75 2307.6 1924.2 2306.89C1971.75 2306.2 2019.29 2306.38 2066.82 2306.09C2114.39 2306.38 2161.93 2306.2 2209.48 2306.89H2209.48ZM2209.48 2281.88C2185.7 2282.36 2161.93 2282.64 2138.15 2282.7L2066.82 2283.12L1995.51 2282.7C1971.75 2282.66 1947.96 2282.37 1924.2 2281.88C1947.96 2281.41 1971.75 2281.12 1995.51 2281.07L2066.82 2280.66L2138.15 2281.08C2161.93 2281.12 2185.7 2281.41 2209.48 2281.88ZM2077.36 2261.2C2051.83 2261.89 2026.29 2261.71 2000.78 2262C1975.26 2261.72 1949.73 2261.89 1924.2 2261.2C1949.73 2260.49 1975.26 2260.67 2000.78 2260.38C2026.29 2260.67 2051.83 2260.49 2077.36 2261.2ZM2325.08 2333.6C2271.88 2334.31 2218.69 2334.13 2165.48 2334.42C2112.27 2334.13 2059.08 2334.31 2005.86 2333.6C2059.08 2332.91 2112.27 2333.07 2165.48 2332.8C2218.69 2333.09 2271.88 2332.91 2325.08 2333.6ZM2332.58 2287.56C2318.54 2288.02 2304.49 2288.34 2290.45 2288.5L2248.34 2288.78L2206.22 2288.5C2192.18 2288.34 2178.14 2288.02 2164.11 2287.56C2178.14 2287.1 2192.18 2286.78 2206.22 2286.62L2248.34 2286.34L2290.45 2286.62C2304.49 2286.78 2318.54 2287.1 2332.58 2287.56Z" fill="#988D8D"/>
<path d="M1905.18 2368.4H2363.62C2381.35 2368.4 2395.75 2383.45 2395.75 2402.03C2395.75 2420.58 2381.35 2435.63 2363.62 2435.63H1905.18V2368.4" fill="#D5CECB"/>
<path d="M1902.68 2435.63H2372.08C2389.78 2435.44 2404.13 2420.44 2404.13 2402.03C2404.13 2383.6 2389.78 2368.59 2372.08 2368.41H1902.68C1898.13 2368.41 1894.4 2364.55 1894.4 2359.83C1894.4 2355.09 1898.13 2351.24 1902.68 2351.24H2376.03C2400.98 2353.51 2420.61 2375.51 2420.61 2402.03C2420.61 2428.52 2400.98 2450.54 2376.03 2452.8H1902.68C1898.13 2452.8 1894.4 2448.94 1894.4 2444.22C1894.4 2439.5 1898.13 2435.63 1902.68 2435.63Z" fill="#3A8DB4"/>
<path d="M2324.91 2380.87C2271.75 2381.59 2218.61 2381.41 2165.45 2381.72C2112.3 2381.41 2059.16 2381.59 2006 2380.87C2059.16 2380.14 2112.3 2380.32 2165.45 2380.03C2218.61 2380.33 2271.75 2380.14 2324.91 2380.87ZM2363.16 2402.03C2321.5 2402.63 2279.85 2402.47 2238.2 2402.71C2196.53 2402.47 2154.89 2402.63 2113.23 2402.03C2154.89 2401.42 2196.53 2401.59 2238.2 2401.34C2279.85 2401.59 2321.5 2401.44 2363.16 2402.03ZM2206.13 2417.2C2155.96 2417.8 2105.81 2417.65 2055.64 2417.9C2005.49 2417.65 1955.33 2417.8 1905.16 2417.2C1955.33 2416.61 2005.49 2416.76 2055.64 2416.51C2105.81 2416.76 2155.96 2416.61 2206.13 2417.2ZM2217.93 2408.19C2165.8 2408.79 2113.67 2408.64 2061.56 2408.89C2009.43 2408.64 1957.3 2408.79 1905.17 2408.19C1957.3 2407.6 2009.43 2407.75 2061.56 2407.5C2113.67 2407.75 2165.8 2407.6 2217.93 2408.19H2217.93ZM2217.93 2391.11C2165.8 2392.01 2113.67 2391.78 2061.56 2392.15C2009.43 2391.79 1957.3 2392.01 1905.17 2391.11C1957.3 2390.21 2009.43 2390.43 2061.56 2390.06C2113.67 2390.45 2165.8 2390.21 2217.93 2391.11H2217.93ZM2045.75 2373.42C2022.32 2374.02 1998.88 2373.88 1975.46 2374.13C1952.04 2373.88 1928.61 2374.03 1905.18 2373.42C1928.61 2372.82 1952.04 2372.98 1975.46 2372.73C1998.88 2372.98 2022.32 2372.84 2045.75 2373.42V2373.42ZM2328.91 2422.46L2123.62 2423.16C2055.2 2422.91 1986.76 2423.06 1918.34 2422.46C1986.76 2421.85 2055.2 2422.01 2123.62 2421.76L2328.91 2422.46ZM2335.3 2395.98C2303.94 2396.86 2272.57 2396.64 2241.21 2397.02C2209.87 2396.64 2178.5 2396.88 2147.13 2395.98C2178.5 2395.06 2209.86 2395.3 2241.21 2394.92C2272.57 2395.3 2303.94 2395.08 2335.3 2395.98Z" fill="#988D8D"/>
<path d="M2365 2426.31C2388.57 2426.31 2395.75 2408.98 2395.75 2402.03C2395.75 2383.45 2381.35 2368.4 2363.62 2368.4H2372C2389.75 2368.4 2404.14 2383.45 2404.14 2402.03C2404.14 2420.58 2389.75 2435.63 2372 2435.63H1905.19V2426.31H2365Z" fill="#BAB5AC"/>
<path d="M1859.13 2463.56H2407.27C2426.72 2463.56 2442.5 2480.07 2442.5 2500.41C2442.5 2520.78 2426.72 2537.27 2407.27 2537.27H1859.13V2463.56" fill="#D5CECB"/>
<path d="M1858.16 2537.2H2416.65C2435.97 2536.99 2451.67 2520.49 2451.67 2500.41C2451.67 2480.37 2435.97 2463.85 2416.65 2463.64H1858.16C1856.78 2463.64 1855.45 2463.07 1854.48 2462.06C1853.5 2461.04 1852.95 2459.66 1852.95 2458.23C1852.95 2455.23 1855.29 2452.8 1858.16 2452.8H2420.41C2431.73 2453.86 2442.21 2459.28 2449.97 2468.08C2457.8 2476.96 2462.12 2488.44 2462.12 2500.42C2462.12 2512.41 2457.8 2523.9 2449.97 2532.78C2442.21 2541.56 2431.73 2546.99 2420.41 2548.05H1858.16C1856.78 2548.05 1855.45 2547.48 1854.47 2546.46C1853.49 2545.44 1852.94 2544.06 1852.94 2542.62C1852.94 2541.19 1853.49 2539.81 1854.47 2538.79C1855.45 2537.77 1856.78 2537.2 1858.16 2537.2" fill="#5E2590"/>
<path d="M2347.6 2477.23C2310.21 2478.02 2272.82 2477.83 2235.42 2478.15C2198.03 2477.83 2160.64 2478.04 2123.25 2477.23C2160.64 2476.43 2198.03 2476.62 2235.42 2476.3C2272.82 2476.64 2310.21 2476.43 2347.6 2477.23ZM2406.77 2500.41C2365.5 2501.08 2324.22 2500.9 2282.93 2501.18C2241.66 2500.91 2200.38 2501.08 2159.11 2500.41C2200.38 2499.76 2241.66 2499.93 2282.93 2499.66C2324.22 2499.93 2365.5 2499.76 2406.77 2500.41ZM2225.47 2517.07C2164.41 2517.72 2103.36 2517.55 2042.29 2517.82C1981.23 2517.55 1920.17 2517.72 1859.11 2517.07C1920.17 2516.4 1981.23 2516.57 2042.29 2516.3C2103.36 2516.58 2164.41 2516.4 2225.47 2517.07V2517.07ZM2322.11 2507.19C2244.94 2507.85 2167.78 2507.67 2090.61 2507.95C2013.44 2507.69 1936.27 2507.86 1859.11 2507.19C1936.27 2506.54 2013.44 2506.7 2090.61 2506.44C2167.78 2506.7 2244.94 2506.54 2322.11 2507.19ZM2322.11 2488.47C2283.53 2488.93 2244.94 2489.19 2206.36 2489.23L2090.61 2489.62L1974.86 2489.23C1936.27 2489.21 1897.69 2488.93 1859.11 2488.47C1897.69 2488.03 1936.27 2487.75 1974.86 2487.71L2090.61 2487.34L2206.36 2487.71C2244.94 2487.77 2283.53 2488.03 2322.11 2488.47ZM2166.83 2469.09C2115.54 2469.74 2064.26 2469.57 2012.96 2469.85C1961.69 2469.59 1910.4 2469.74 1859.11 2469.09C1910.4 2468.44 1961.69 2468.6 2012.96 2468.34C2064.26 2468.6 2115.54 2468.44 2166.83 2469.09ZM2351.99 2522.84C2313.07 2523.5 2274.17 2523.33 2235.25 2523.59C2196.34 2523.33 2157.44 2523.5 2118.52 2522.84C2157.44 2522.19 2196.34 2522.35 2235.25 2522.08C2274.17 2522.36 2313.07 2522.19 2351.99 2522.84ZM2359.01 2493.79C2345.44 2494.21 2331.88 2494.51 2318.32 2494.66L2277.64 2494.94L2236.96 2494.68C2223.4 2494.51 2209.82 2494.22 2196.26 2493.79C2209.83 2493.36 2223.39 2493.06 2236.96 2492.9L2277.64 2492.64L2318.32 2492.92C2331.88 2493.06 2345.44 2493.38 2359.01 2493.79Z" fill="#988D8D"/>
<path d="M2408.78 2527.06C2434.61 2527.06 2442.48 2508.05 2442.48 2500.42C2442.48 2480.08 2426.71 2463.56 2407.27 2463.56H2416.44C2435.9 2463.56 2451.67 2480.08 2451.67 2500.41C2451.67 2520.78 2435.9 2537.27 2416.44 2537.27H1859.12V2527.06H2408.78" fill="#BAB5AC"/>
<path d="M2165.92 2557.07C2168.32 2557.07 2170.26 2555.06 2170.26 2552.56C2170.26 2550.07 2168.32 2548.05 2165.92 2548.05H1861.69C1852.29 2548.93 1843.57 2553.45 1837.12 2560.75C1830.62 2568.09 1827.02 2577.7 1827.02 2587.67C1827.02 2597.63 1830.6 2607.19 1837.12 2614.58C1843.57 2621.91 1852.29 2626.41 1861.69 2627.28H2165.92C2168.32 2627.28 2170.26 2625.26 2170.26 2622.77C2170.26 2621.57 2169.8 2620.42 2168.99 2619.58C2168.17 2618.74 2167.07 2618.26 2165.92 2618.26H2165.13V2557.07H2165.92" fill="#C63E17"/>
<path d="M2433.56 2557.01H2174.11C2157.93 2557.01 2144.81 2570.74 2144.81 2587.67C2144.81 2604.6 2157.93 2618.33 2174.11 2618.33H2433.56V2557.01" fill="#D5CECB"/>
<path d="M2434.33 2618.26H2166.29C2150.22 2618.08 2137.16 2604.37 2137.16 2587.67C2137.16 2570.98 2150.22 2557.25 2166.29 2557.07H2434.33C2434.9 2557.07 2435.47 2556.95 2435.99 2556.72C2436.52 2556.5 2437 2556.17 2437.4 2555.75C2437.8 2555.33 2438.12 2554.83 2438.34 2554.29C2438.56 2553.74 2438.67 2553.15 2438.67 2552.56C2438.67 2551.37 2438.21 2550.22 2437.4 2549.37C2436.59 2548.52 2435.48 2548.05 2434.33 2548.05H2163.15C2153.75 2548.93 2145.03 2553.45 2138.57 2560.75C2132.06 2568.14 2128.47 2577.7 2128.47 2587.67C2128.47 2597.63 2132.06 2607.19 2138.57 2614.58C2145.03 2621.91 2153.75 2626.41 2163.15 2627.28H2434.33C2435.48 2627.28 2436.59 2626.8 2437.4 2625.96C2438.22 2625.11 2438.67 2623.96 2438.67 2622.77C2438.67 2621.57 2438.21 2620.43 2437.4 2619.58C2436.58 2618.74 2435.48 2618.26 2434.33 2618.26Z" fill="#EF6219"/>
<path d="M2223.74 2568.37C2248.79 2567.6 2273.83 2567.55 2298.85 2567.44C2323.9 2567.55 2348.92 2567.6 2373.96 2568.37C2348.92 2569.15 2323.9 2569.19 2298.85 2569.3C2273.83 2569.19 2248.79 2569.15 2223.74 2568.37ZM2174.52 2587.67C2202.79 2587.01 2231.06 2587.17 2259.32 2586.89C2287.59 2587.17 2315.88 2587.01 2344.14 2587.67C2315.88 2588.32 2287.59 2588.16 2259.32 2588.43C2231.06 2588.16 2202.79 2588.32 2174.52 2587.67ZM2339.42 2601.53C2355.11 2600.89 2370.8 2600.85 2386.49 2600.76C2402.18 2600.85 2417.87 2600.89 2433.56 2601.53C2417.87 2602.16 2402.18 2602.19 2386.49 2602.29C2370.8 2602.19 2355.11 2602.15 2339.42 2601.53ZM2328.67 2593.31C2346.15 2592.64 2363.63 2592.82 2381.12 2592.55C2398.6 2592.81 2416.07 2592.64 2433.56 2593.31C2416.07 2593.96 2398.6 2593.79 2381.12 2594.07C2363.63 2593.79 2346.15 2593.96 2328.67 2593.31ZM2328.67 2577.74C2337.42 2577.32 2346.15 2577 2354.9 2576.85L2381.12 2576.59L2407.35 2576.85C2416.07 2577 2424.82 2577.31 2433.56 2577.74C2424.82 2578.15 2416.07 2578.46 2407.35 2578.62L2381.12 2578.89L2354.9 2578.62C2346.15 2578.45 2337.41 2578.16 2328.67 2577.74V2577.74ZM2337.71 2561.6C2353.69 2560.97 2369.66 2560.93 2385.64 2560.83C2401.61 2560.93 2417.57 2560.97 2433.56 2561.6C2417.57 2562.23 2401.61 2562.27 2385.64 2562.36C2369.66 2562.27 2353.69 2562.23 2337.71 2561.6ZM2220.09 2606.31C2246.39 2605.65 2272.69 2605.82 2299 2605.54C2325.3 2605.82 2351.59 2605.65 2377.89 2606.31C2351.59 2606.96 2325.3 2606.8 2299 2607.07C2272.69 2606.79 2246.39 2606.96 2220.09 2606.31ZM2214.25 2582.14C2226.71 2581.73 2239.15 2581.42 2251.61 2581.27L2288.97 2581.01L2326.33 2581.27C2338.79 2581.42 2351.24 2581.73 2363.7 2582.14C2351.24 2582.57 2338.79 2582.88 2326.33 2583.03L2288.97 2583.29L2251.61 2583.03C2239.15 2582.88 2226.71 2582.57 2214.25 2582.14Z" fill="#988D8D"/>
<path d="M2172.84 2609.84C2151.36 2609.84 2144.81 2594.02 2144.81 2587.67C2144.81 2570.74 2157.93 2557.01 2174.11 2557.01H2166.45C2150.27 2557.01 2137.18 2570.74 2137.18 2587.67C2137.18 2604.6 2150.27 2618.33 2166.45 2618.33H2433.56V2609.84H2172.84" fill="#BAB5AC"/>
</svg>
